PathFileType	4	(X/Y/Z)	C:/Users/opensim2020/Desktop/walking_exp_matlab/subject02_walking07_straight_02.trc	
DataRate	CameraRate	NumFrames	NumMarkers	Units	OrigDataRate	OrigDataStartFrame	OrigNumFrames	
100.00	100.00	5	50	mm	100.00	1514	210	
Frame#	Time	LFHD			RFHD			LBHD			RBHD			C7			T10			CLAV			STRN			RBAK			LSHO			LUPA			LELB			LFRM			LWRA			LWRB			LFIN			RSHO			RUPA			RELB			RFRM			RWRA			RWRB			RFIN			LASI			RASI			LPSI			RPSI			LTHI			LKNE			LTIB			LANK			LHEE			LTOE			RTHI			RKNE			RTIB			RANK			RHEE			RTOE			*39			*40			*41			*42			*43			*44			*45			*46			*47			*48			*49			
		X1	Y1	Z1	X2	Y2	Z2	X3	Y3	Z3	X4	Y4	Z4	X5	Y5	Z5	X6	Y6	Z6	X7	Y7	Z7	X8	Y8	Z8	X9	Y9	Z9	X10	Y10	Z10	X11	Y11	Z11	X12	Y12	Z12	X13	Y13	Z13	X14	Y14	Z14	X15	Y15	Z15	X16	Y16	Z16	X17	Y17	Z17	X18	Y18	Z18	X19	Y19	Z19	X20	Y20	Z20	X21	Y21	Z21	X22	Y22	Z22	X23	Y23	Z23	X24	Y24	Z24	X25	Y25	Z25	X26	Y26	Z26	X27	Y27	Z27	X28	Y28	Z28	X29	Y29	Z29	X30	Y30	Z30	X31	Y31	Z31	X32	Y32	Z32	X33	Y33	Z33	X34	Y34	Z34	X35	Y35	Z35	X36	Y36	Z36	X37	Y37	Z37	X38	Y38	Z38	X39	Y39	Z39	X40	Y40	Z40	X41	Y41	Z41	X42	Y42	Z42	X43	Y43	Z43	X44	Y44	Z44	X45	Y45	Z45	X46	Y46	Z46	X47	Y47	Z47	X48	Y48	Z48	X49	Y49	Z49	X50	Y50	Z50	

184	1.830	-874.54199	-924.41711	1715.55774	-1017.36963	-919.26886	1701.31299	-866.81293	-782.38495	1665.70178	-1007.75024	-764.68329	1652.19128	-941.29120	-710.46796	1518.62732	-950.96368	-668.90729	1237.91565	-931.78485	-852.20911	1455.01575	-943.81036	-912.82318	1287.27222	-1005.92975	-656.43115	1338.68506	-763.90186	-781.16455	1496.10913	-666.04102	-825.54413	1310.10657	-639.79962	-883.68286	1180.69482	-636.55438	-973.82050	1080.80103	-683.17303	-1089.08899	1019.52753	-645.37714	-1058.10437	991.59180	-645.83118	-1115.62256	959.26239	-1127.75293	-783.68384	1486.70959	-1214.02844	-761.18835	1295.07837	-1245.44507	-788.72418	1155.01953	-1275.98804	-826.84918	1043.57703	-1271.06091	-887.45355	920.97577	-1301.18652	-839.62915	916.16315	-1309.51855	-881.77869	856.05536	-818.64520	-907.05029	982.69238	-1072.74512	-915.19751	978.00464	-905.03046	-697.13873	1021.43677	-1019.53229	-695.87512	1021.70618	-788.17633	-822.24976	667.54688	-829.91455	-769.13446	469.98291	-842.76013	-690.73492	290.43094	-892.13574	-671.85706	69.80195	-946.94366	-636.31903	44.59443	-871.10968	-825.55682	28.37354	-1177.16541	-900.88837	683.87415	-1164.23999	-967.66522	485.93387	-1175.02637	-931.62042	303.03406	-1154.64124	-930.80573	108.07092	-1094.59863	-917.03650	47.46076	-1203.28784	-1076.11182	60.54792	-960.30219	-834.92352	1800.79761	-3356.93237	2845.83838	1033.84680																											 
185	1.840	-875.21552	-933.34045	1714.06995	-1017.89899	-928.04279	1699.67468	-867.18103	-791.13354	1664.55847	-1008.12445	-773.26038	1650.99744	-941.60925	-718.78314	1517.71008	-951.73761	-676.70325	1236.99365	-931.98260	-860.35956	1453.68518	-943.87372	-920.67743	1285.84448	-1006.50134	-664.49243	1337.80518	-764.17981	-789.40570	1495.00659	-666.22034	-834.04291	1309.38208	-639.52594	-894.09045	1180.83850	-636.40308	-985.95099	1082.05945	-683.34436	-1101.14014	1021.66705	-645.08215	-1070.38574	993.64911	-645.80121	-1128.45020	961.91296	-1128.06201	-792.24884	1485.54639	-1214.57434	-769.04706	1294.13037	-1246.19067	-795.51025	1154.08130	-1276.84509	-833.04987	1042.47119	-1272.09338	-892.68964	918.99127	-1302.41333	-844.95325	914.93738	-1310.88342	-886.57098	854.61890	-818.70258	-914.44366	981.86102	-1072.71033	-923.48840	976.72601	-905.79724	-704.84973	1020.38971	-1020.25415	-703.99982	1020.49902	-788.17297	-827.05109	666.79486	-830.05829	-773.06262	469.54483	-842.84094	-693.00891	290.64563	-892.27368	-672.10522	70.15405	-947.37134	-637.00934	45.22517	-870.91248	-825.37720	28.54263	-1176.57690	-909.77332	682.36646	-1162.91345	-978.77325	484.98206	-1175.70886	-949.70972	300.90363	-1157.05188	-955.89594	105.73595	-1097.77808	-943.02411	44.43906	-1202.88330	-1104.25085	63.66267	-961.17590	-844.16504	1799.70801	-3360.22363	2845.13037	1034.20081																											 
186	1.850	-875.98926	-942.19061	1712.58350	-1018.53674	-936.84436	1698.08789	-867.50000	-799.81897	1663.54419	-1008.37610	-781.91370	1649.47119	-941.97681	-727.16010	1516.60193	-952.53485	-684.76910	1236.02014	-932.27350	-868.60724	1452.32593	-944.00336	-928.61389	1284.43567	-1006.35706	-672.89655	1336.62219	-764.59186	-797.61377	1493.83960	-666.58765	-843.91632	1308.80908	-639.44885	-904.28131	1180.71936	-636.24933	-996.40851	1082.64575	-683.73474	-1112.36536	1023.06519	-644.93622	-1082.30750	995.21405	-645.73291	-1140.62183	964.00336	-1128.40222	-800.89124	1484.20337	-1215.71729	-776.90839	1293.38904	-1246.82361	-802.51428	1153.00757	-1277.94092	-839.19910	1041.22998	-1273.55261	-898.33307	917.59961	-1303.63220	-850.40765	913.71216	-1312.25098	-891.71948	853.17273	-818.58588	-921.73383	980.72443	-1072.72510	-931.88843	975.40979	-906.65149	-712.30914	1019.34351	-1021.12183	-712.20013	1019.27576	-788.07446	-832.27875	666.01666	-830.21338	-776.89886	469.15356	-842.98914	-695.18018	291.00351	-892.35046	-672.33038	70.57019	-947.59631	-637.12903	45.83940	-870.79199	-825.36261	28.49975	-1175.97192	-918.42389	680.71753	-1161.10730	-989.44470	483.80341	-1176.48560	-967.56512	299.13080	-1159.41858	-980.62134	104.04567	-1101.07886	-968.57758	41.94218	-1201.98657	-1131.48938	67.53100	-961.82648	-853.35461	1798.41992	-3360.37012	2845.29395	1033.86047																											 
187	1.860	-876.49493	-951.30109	1711.05505	-1019.17023	-945.68744	1696.45251	-868.04553	-808.73596	1662.59705	-1009.07306	-790.61682	1648.66919	-942.46851	-735.66876	1515.47290	-953.48126	-692.75641	1234.94775	-932.68323	-876.85144	1450.93909	-944.27704	-936.67505	1283.00232	-1006.94244	-681.11993	1335.56299	-765.03229	-805.93811	1492.62683	-667.04327	-852.52142	1307.63684	-639.57642	-914.13544	1180.32483	-636.34583	-1007.02832	1082.92322	-683.97736	-1123.40295	1023.98468	-644.90460	-1093.60559	996.22650	-645.78143	-1152.03333	965.49164	-1128.86133	-809.40796	1482.91382	-1215.92761	-784.96844	1292.06628	-1247.39172	-809.77777	1151.81274	-1279.13867	-845.58374	1039.94897	-1275.06616	-904.31537	916.04077	-1304.92444	-856.13092	912.44196	-1313.66541	-896.97577	851.61438	-818.53284	-929.07208	979.49908	-1072.75745	-940.43774	974.05402	-907.74335	-720.05261	1018.34808	-1022.11218	-720.47406	1017.97644	-788.23120	-837.08612	665.31110	-830.36145	-780.51263	468.72159	-843.12964	-697.28888	291.37271	-892.35327	-672.29883	71.04134	-947.58899	-637.09894	46.63157	-870.68463	-825.37048	28.46007	-1175.31921	-926.91418	678.87762	-1159.48828	-1000.03613	482.78232	-1177.37732	-985.11273	297.69226	-1161.62891	-1004.85156	102.90720	-1104.24097	-993.60748	39.81779	-1200.69482	-1158.03247	71.79585	-962.21698	-862.38489	1796.94849	-3360.24805	2845.15454	1033.86523																											 
188	1.870	-877.23193	-960.31738	1709.50195	-1019.87573	-954.55322	1694.86279	-868.60675	-817.52557	1661.32092	-1009.50525	-799.35046	1647.31445	-943.05615	-744.03998	1514.38953	-954.50732	-700.89746	1233.82312	-933.18518	-885.21466	1449.56384	-944.70367	-944.79773	1281.57202	-1008.31628	-689.14545	1334.62354	-765.55743	-814.36151	1491.31323	-667.64197	-861.40314	1306.52124	-639.92480	-923.42163	1179.56152	-636.50629	-1017.00500	1082.77966	-684.09473	-1133.79578	1024.72693	-645.02136	-1104.52722	996.73090	-645.64862	-1163.08923	966.55902	-1129.44324	-817.95734	1481.61255	-1217.10669	-793.04059	1291.22900	-1248.22266	-817.09546	1150.71484	-1279.96924	-852.40308	1038.81860	-1276.27673	-910.07739	914.37854	-1306.27209	-862.08026	911.19122	-1315.05835	-902.51904	849.82202	-818.36298	-936.56140	978.14453	-1072.89429	-949.15173	972.63654	-908.87518	-728.01825	1017.26013	-1023.22156	-728.97162	1016.63525	-788.46881	-841.67303	664.43396	-830.59375	-784.21222	468.34558	-843.41406	-699.31274	291.83426	-892.49561	-672.81976	71.55527	-947.50970	-637.10187	47.01207	-870.56488	-825.36957	28.44388	-1174.93738	-935.57147	676.90399	-1157.86450	-1010.22797	481.57394	-1178.19983	-1002.49799	296.36606	-1163.60217	-1028.57886	102.15255	-1107.01379	-1018.11700	38.48945	-1198.93982	-1183.83228	76.25880	-962.93951	-871.60999	1795.58984	-3360.21094	2845.10718	1034.01660																											 
